PathFileType	3	(X/Y/Z)	RCH0000002 BBF 04.c3d
DataRate	CameraRate	NumFrames	NumMarkers	Units	OrigDataRate	OrigDataStartFrame	OrigNumFrames
100.0	100.0	5	23	mm	100.0	486	346
Frame#	Time	T2			MAN			RASI			LPAT			LKNE			LANK			LMED			LHEE			LTOE			RPAT			RKNE			LASI			T10			RPSI			RANK			RTOE			RMED			RHEE			LPSI			RTHI			LTHI			RTIB			LTIB			
		X1	Y1	Z1	X2	Y2	Z2	X3	Y3	Z3	X4	Y4	Z4	X5	Y5	Z5	X6	Y6	Z6	X7	Y7	Z7	X8	Y8	Z8	X9	Y9	Z9	X10	Y10	Z10	X11	Y11	Z11	X12	Y12	Z12	X13	Y13	Z13	X14	Y14	Z14	X15	Y15	Z15	X16	Y16	Z16	X17	Y17	Z17	X18	Y18	Z18	X19	Y19	Z19	X20	Y20	Z20	X21	Y21	Z21	X22	Y22	Z22	X23	Y23	Z23	

486	4.850	469.60667	67.67156	990.14856	600.40221	76.46536	964.00475	587.05212	-3.01879	658.38137	519.47249	126.11804	380.73194	470.57562	184.00666	348.06016	391.87463	174.27100	80.24272	394.49691	106.84536	103.40154	354.42058	139.29814	119.39683	439.38869	135.93983	72.18890	695.97304	44.12946	416.26246	655.27199	-9.66633	374.42940	557.53789	172.53787	660.49003	479.94731	69.87629	804.13864	468.43202	30.92451	707.79731	546.96185	-42.86912	134.64769	585.42614	-6.43322	110.43680	535.29379	25.99864	140.16142	509.48397	-10.89038	173.14224	458.00160	100.12184	710.89058	631.05806	-79.63557	483.32207	487.47294	254.18990	471.71133	614.35535	-88.77284	282.37153	434.12277	244.99387	231.52510	
487	4.860	480.01452	67.65625	989.60199	610.76696	75.84227	962.54937	597.18378	-2.33475	657.45611	524.29775	127.31861	379.70645	474.21890	184.76448	348.05032	392.30606	174.65886	80.87214	395.71067	107.39733	104.20358	355.65930	139.62440	120.62939	440.02781	136.61176	72.24425	709.82586	46.49622	419.16923	671.10816	-7.46623	376.03342	565.66093	173.00460	660.14916	488.83628	69.32411	803.49101	477.76411	30.05691	706.08423	574.40927	-40.98598	131.66631	613.27468	-3.90040	109.08604	561.48159	27.59668	136.53612	534.70779	-9.83508	168.39213	466.72269	99.08390	709.64266	644.98553	-77.97720	484.22017	492.60661	254.69895	471.62885	635.56507	-86.69282	282.02899	435.75521	245.65717	231.89791	
488	4.870	490.45834	67.65799	988.71413	621.20772	75.26435	960.87146	607.55829	-1.69223	656.22142	529.79252	128.27551	378.49064	478.59282	185.29210	347.82265	392.80207	174.89501	81.62170	397.02662	107.77206	105.03954	357.04789	139.77234	122.01065	440.68281	137.12895	72.29977	722.82945	49.32166	421.12082	686.20004	-4.94234	376.86027	574.13040	173.40776	659.57659	497.98122	68.72511	802.52818	487.38286	29.18424	704.08687	601.31378	-38.99743	128.27743	640.29210	-1.14109	107.26304	586.86599	29.22778	132.49532	559.36298	-8.85481	163.21152	475.75589	98.06563	708.13228	658.72341	-76.02287	484.40286	498.38276	255.07277	471.27670	656.35165	-84.35194	281.07567	437.88269	246.09895	232.22136	
489	4.880	500.93610	67.63927	987.49452	631.72234	74.71046	959.00657	618.19167	-1.08516	654.70743	536.08011	128.97606	377.04799	483.83413	185.57600	347.32550	393.45146	174.98527	82.51835	398.50932	107.96815	105.92706	358.68402	139.75618	123.57279	441.40679	137.47737	72.35821	735.00175	52.63024	422.05693	700.54323	-2.09209	376.86590	582.97430	173.75123	658.75682	507.41424	68.10223	801.25795	497.31528	28.33149	701.84323	627.29878	-36.92088	124.52071	666.11500	1.80742	104.98835	611.09466	30.87590	128.09663	583.11961	-7.94892	157.69274	485.12695	97.09144	706.36734	672.29969	-73.75684	483.85752	504.89193	255.30241	470.61194	676.56196	-81.74286	279.51185	440.65763	246.31256	232.46944	
490	4.890	511.44311	67.57516	985.95420	642.30592	74.16982	956.99194	629.09179	-0.51400	652.95099	543.28238	129.42406	375.33700	490.07433	185.61678	346.50425	394.36901	174.95834	83.57871	400.23826	108.01000	106.88067	360.68841	139.62209	125.33904	442.26960	137.65897	72.41712	746.38628	56.40306	421.95424	714.14625	1.05748	376.03686	592.20935	174.03371	657.67277	517.16295	67.48163	799.69108	507.57890	27.51723	699.39986	651.94796	-34.78534	120.45434	690.35933	4.88598	102.30407	633.80696	32.52164	123.41982	605.62231	-7.11079	151.95311	494.85132	96.17818	704.35835	685.73557	-71.19069	482.59495	512.21049	255.38260	469.59589	696.01239	-78.88053	277.36297	444.25054	246.31109	232.60637	
